<svg width="219" height="139" viewBox="0 0 219 139" fill="none" xmlns="http://www.w3.org/2000/svg">
<path d="M212.811 29.2335C204.619 32.7148 195.458 33.3778 186.83 31.1141V0.928711H171.691V27.3833C161.281 25.0098 150.391 25.5968 140.312 29.0747L145.276 42.8043C155.833 39.2855 163.579 40.3332 171.687 42.3128V70.9503H186.83V45.9649C190.317 46.6182 193.859 46.9553 197.41 46.9719C204.712 46.9199 211.93 45.4492 218.644 42.6455L212.811 29.2335Z" fill="#FF00D3"/>
<path d="M114.735 51.8824L116.296 51.2982C116.201 51.0024 116.136 50.7763 116.056 50.5554C114.834 47.2462 111.718 38.6735 111.384 37.697L111.322 37.669C110.028 38.1617 108.72 38.6303 107.44 39.1484C94.7129 44.0541 84.4816 53.6614 78.9674 65.8849C75.7659 73.0665 73.7373 80.6934 72.9554 88.4881C72.5736 91.9076 71.8396 95.2809 70.7644 98.5567C66.9329 109.948 59.6394 118.239 48.5261 123.065C47.3239 123.584 46.0841 124.025 44.8065 124.526L49.8089 138.072C50.2825 137.909 50.6819 137.777 51.0787 137.636C65.4576 132.526 75.9009 123.359 82.1653 109.884C85.3615 102.713 87.3854 95.0967 88.163 87.3135C88.5862 83.4767 89.4593 79.7 90.765 76.0576C95.0376 64.4259 102.96 56.2925 114.735 51.8824Z" fill="white"/>
<path d="M29.9631 117.645C25.9397 117.6 21.9655 116.775 18.2717 115.218C14.5779 113.66 11.2382 111.402 8.44685 108.573C4.3116 104.466 1.57592 99.2141 0.613404 93.5332C-0.512974 87.7721 0.0897045 81.8161 2.34896 76.3814C3.9441 72.3865 6.46187 68.8045 9.70647 65.9141C12.9511 63.0236 16.835 60.9026 21.0563 59.716C24.4796 58.646 28.0496 58.0894 31.644 58.0652C37.6117 58.0883 43.4522 59.7504 48.4975 62.8614C52.02 64.9231 55.0402 67.7091 57.3479 71.0255C59.6556 74.3419 61.1954 78.1091 61.8602 82.0652C63.1754 88.4031 62.359 94.9861 59.5327 100.835C57.6456 104.779 54.8644 108.253 51.3995 110.994C47.9346 113.735 43.8765 115.672 39.5321 116.657C36.402 117.402 33.1837 117.734 29.9631 117.645ZM31.1705 72.2125H30.9935C28.6511 72.1494 26.3277 72.6396 24.221 73.6414C22.1144 74.6432 20.2869 76.1268 18.894 77.9662C16.7762 80.8334 15.6653 84.2923 15.7274 87.8265C15.7534 88.1173 15.7755 88.4093 15.7976 88.7001C15.8418 89.2868 15.8874 89.8836 15.9628 90.4652C16.3176 93.9464 17.9361 97.1891 20.526 99.6075C23.1159 102.026 26.5065 103.461 30.0854 103.653C30.5043 103.678 30.9233 103.692 31.3305 103.692C33.5068 103.738 35.6665 103.314 37.6557 102.451C39.6449 101.588 41.4144 100.307 42.838 98.7001C45.3409 95.8984 46.7264 92.3106 46.7411 88.5935C46.9501 85.5561 46.2878 82.522 44.8286 79.8316C41.9689 74.7763 37.3763 72.2125 31.1705 72.2125Z" fill="white"/>
<path d="M160.596 82.8398C159.684 76.3552 156.429 70.4016 151.419 66.0512C143.341 59.0366 133.788 56.9084 123.225 58.8093C116.157 59.9979 109.78 63.674 105.301 69.142C101.031 74.2246 98.7075 80.6006 98.7312 87.1738C98.6414 96.37 98.7052 105.56 98.7052 114.752C98.7052 114.94 98.7247 115.133 98.7364 115.333H114.336C114.336 115.02 114.336 114.764 114.336 114.506C114.343 105.853 114.353 97.2004 114.368 88.5477C114.358 87.2985 114.446 86.0503 114.634 84.8144C114.905 82.6627 115.676 80.5999 116.888 78.7833C118.1 76.9667 119.721 75.4442 121.628 74.3319C124.506 72.6575 127.86 71.9305 131.194 72.2582C133.553 72.3575 135.851 73.0171 137.889 74.1798C139.927 75.3424 141.644 76.973 142.89 78.93C144.627 81.7421 145.486 84.9872 145.362 88.2684C145.362 97.0286 145.362 105.79 145.362 114.554V115.376H161.02V114.529C161.02 105.725 161.042 96.9211 161.002 88.116C161.002 86.3482 160.866 84.5828 160.596 82.8347" fill="white"/>
</svg>
